<svg xmlns="http://www.w3.org/2000/svg" xmlns:xlink="http://www.w3.org/1999/xlink" viewBox="0 0 102.036 117.562"><defs><clipPath id="a" transform="translate(-99.952 -112.838)"><path d="M101.879,199.939V143.248q24.546-14.172,49.091-28.344,24.549,14.172,49.092,28.344v56.691L150.97,228.282l-49.091-28.343m48.614-86.974q-25,14.433-50,28.863a.963.963,0,0,0-.543.866v57.8h0a.96.96,0,0,0,.479.831q25.023,14.448,50.045,28.89a.959.959,0,0,0,.969.008l50-28.863a.963.963,0,0,0,.542-.866v-57.8h0a.963.963,0,0,0-.48-.831q-25.023-14.448-50.045-28.89a.959.959,0,0,0-.492-.135.944.944,0,0,0-.476.127" fill="none"/></clipPath><linearGradient id="b" y1="324.47" x2="1" y2="324.47" gradientTransform="matrix(102.036, 0, 0, -102.036, 0, 33166.323)" gradientUnits="userSpaceOnUse"><stop offset="0" stop-color="#e0922e"/><stop offset="1" stop-color="#cf4339"/></linearGradient><clipPath id="c" transform="translate(-99.952 -112.838)"><path d="M143.507,166.175l7.463-4.309,7.463,4.309q-3.731,2.155-7.463,4.309-3.732-2.154-7.463-4.309m-9.386-5.419,16.849-9.727,16.848,9.727-7.462,4.31-8.893-5.135a.962.962,0,0,0-.986,0l-8.893,5.135Zm-9.385-5.418,26.234-15.146L177.2,155.338l-7.463,4.309-18.278-10.553a.962.962,0,0,0-.986,0L132.2,159.647Zm-9.385-5.418,35.619-20.565,35.62,20.565-7.464,4.308-27.663-15.971a.962.962,0,0,0-.986,0l-27.662,15.971Zm35.126-22.5-37.529,21.668a.96.96,0,0,0-.35,1.313.941.941,0,0,0,.361.356q18.765,10.834,37.529,21.669a.965.965,0,0,0,.964,0q18.764-10.836,37.529-21.669a.935.935,0,0,0,.361-.356.959.959,0,0,0-.349-1.313l-37.53-21.668a.962.962,0,0,0-.986,0" fill="none"/></clipPath><linearGradient id="d" x1="0" y1="324.47" x2="1" y2="324.47" gradientTransform="matrix(77.004, 0, 0, -77.004, 12.516, 25022.586)" xlink:href="#b"/><clipPath id="e" transform="translate(-99.952 -112.838)"><path d="M181.048,190.069l5.542,3.2-35.62,20.565-35.619-20.565,5.542-3.2-1.923-1.11-6.022,3.476a.963.963,0,0,0-.35,1.315.948.948,0,0,0,.361.356l37.529,21.667a.959.959,0,0,0,.964,0l37.529-21.667a.941.941,0,0,0,.361-.356.962.962,0,0,0-.349-1.315l-6.023-3.476Z" fill="none"/></clipPath><linearGradient id="f" x1="0" y1="324.47" x2="1" y2="324.47" gradientTransform="matrix(77.004, 0, 0, -77.004, 12.516, 25075.097)" xlink:href="#b"/><clipPath id="g" transform="translate(-99.952 -112.838)"><path d="M181.048,179.232l5.542,3.2-7.464,4.308-5.541-3.2-1.923,1.11,5.542,3.2L150.97,203l-26.234-15.147,5.542-3.2-1.923-1.11-5.54,3.2-7.464-4.308,5.542-3.2-1.922-1.11-6.023,3.478a.96.96,0,0,0-.35,1.313.948.948,0,0,0,.361.356l37.529,21.667a.959.959,0,0,0,.964,0l37.529-21.667a.941.941,0,0,0,.361-.356.96.96,0,0,0-.349-1.313l-6.023-3.478Z" fill="none"/></clipPath><linearGradient id="h" x1="0" y1="324.47" x2="1" y2="324.47" gradientTransform="matrix(77.004, 0, 0, -77.004, 12.516, 25064.261)" xlink:href="#b"/><clipPath id="i" transform="translate(-99.952 -112.838)"><path d="M181.048,168.394l5.542,3.2-7.464,4.31-5.541-3.2-1.923,1.11,5.542,3.2-7.463,4.309-5.541-3.2-1.922,1.11,5.54,3.2-16.848,9.727-16.849-9.727,5.542-3.2-1.923-1.11-5.54,3.2-7.464-4.309,5.542-3.2-1.923-1.11-5.54,3.2-7.464-4.31,5.542-3.2-1.923-1.109-6.022,3.477a.961.961,0,0,0-.35,1.314.946.946,0,0,0,.361.355l20.059,11.582,17.47,10.087a.972.972,0,0,0,.964,0l17.469-10.087,20.06-11.582a.939.939,0,0,0,.361-.355.961.961,0,0,0-.349-1.314l-6.023-3.477Z" fill="none"/></clipPath><linearGradient id="j" x1="0" y1="324.47" x2="1" y2="324.47" gradientTransform="matrix(77.004, 0, 0, -77.004, 12.516, 25053.423)" xlink:href="#b"/><clipPath id="k" transform="translate(-99.952 -112.838)"><path d="M181.048,157.557l5.542,3.2-7.464,4.309-5.541-3.2-1.923,1.11,5.542,3.2-7.463,4.309-5.541-3.2-1.922,1.109,5.54,3.2-7.462,4.31-5.542-3.2-1.922,1.11,5.542,3.2-7.464,4.309-7.464-4.309,5.542-3.2-1.922-1.11-5.542,3.2-7.463-4.31,5.542-3.2-1.923-1.109-5.54,3.2-7.464-4.309,5.542-3.2-1.923-1.11-5.54,3.2-7.464-4.309,5.542-3.2-1.922-1.11-6.023,3.478a.961.961,0,0,0,.011,1.67q18.765,10.835,37.529,21.668a.965.965,0,0,0,.964,0q18.764-10.836,37.529-21.668a.949.949,0,0,0,.361-.356.961.961,0,0,0-.349-1.314l-6.023-3.478Z" fill="none"/></clipPath><linearGradient id="l" x1="0" y1="324.47" x2="1" y2="324.47" gradientTransform="matrix(77.004, 0, 0, -77.004, 12.516, 25042.587)" xlink:href="#b"/></defs><g clip-path="url(#a)"><rect width="102.036" height="117.562" fill="url(#b)"/></g><g clip-path="url(#c)"><rect x="12.38" y="14.446" width="77.277" height="45.271" fill="url(#d)"/></g><g clip-path="url(#e)"><rect x="12.38" y="76.121" width="77.277" height="26.944" fill="url(#f)"/></g><g clip-path="url(#g)"><rect x="12.38" y="65.284" width="77.277" height="26.944" fill="url(#h)"/></g><g clip-path="url(#i)"><rect x="12.38" y="54.447" width="77.277" height="26.943" fill="url(#j)"/></g><g clip-path="url(#k)"><rect x="12.38" y="43.609" width="77.277" height="26.945" fill="url(#l)"/></g></svg>